<svg xmlns="http://www.w3.org/2000/svg" viewBox="387 364 27 36" role="img" aria-label="Great Britain outline">
  <path d="M400.63 367.984l-1.583 2.395.63.958h3.65v1.6l-.953 1.278.632 3.354 2.058 3.994 1.58 3.672 2.534.96 1.105 1.92-.155 1.754-1.582.96-.156.794 1.106.64-.95 1.28-2.222.958-4.28-.477-6.663 3.035-2.22-1.115 6.345-3.674-.796-.476-3.33-.32 2.06-3.033.318-2.56 2.696-.318-.475-4.953-3.175-.156-.95-1.115.155-3.675-1.9.156 1.9-6.387 3.492-2.56 1.127 1.11z" fill="none" stroke="#c8c0b4" stroke-width="0.35" stroke-linejoin="round"/>
  <path d="M393.974 378.693l-2.853.32-.155 2.56 1.9 1.278 2.06-.474.795-1.436-1.746-2.247z" fill="none" stroke="#c8c0b4" stroke-width="0.35" stroke-linejoin="round"/>
</svg>
