<svg xmlns="http://www.w3.org/2000/svg" viewBox="0 0 80 120" role="img" aria-label="Great Britain outline">
  <path d="M36.09 96.11 L33.18 96.73 L31.2 98.64 L27.87 98.62 L25.02 96.06 L20.8 96.82 L20.8 96.11 L22.87 95.43 L20.56 95.41 L20.09 94.12 L14.67 96.35 L12.99 95.4 L15.58 94.99 L15.77 94.04 L14.74 94.28 L14.96 94.94 L12.4 95.27 L11.77 94.76 L13.08 94.24 L12.93 93.34 L11.19 93.25 L13.46 91.36 L15.61 91.5 L16.75 90.35 L20.56 89.14 L22.5 87.4 L23.0 85.47 L24.03 85.23 L22.35 84.59 L23.64 83.05 L22.17 82.24 L22.8 80.77 L19.7 81.17 L18.67 82.39 L16.35 82.39 L20.16 79.55 L21.85 77.29 L25.12 76.44 L24.67 75.86 L27.27 76.44 L29.83 75.69 L32.12 77.09 L31.19 75.19 L32.39 74.69 L34.06 76.45 L35.77 75.69 L33.65 75.71 L31.98 73.2 L33.89 71.06 L32.48 70.64 L32.41 68.98 L34.28 68.24 L34.54 67.65 L33.71 67.42 L34.86 66.31 L34.31 65.47 L34.86 64.8 L33.51 65.95 L32.48 65.13 L31.57 67.06 L30.67 66.47 L30.99 64.62 L30.05 65.5 L26.97 61.55 L29.29 56.95 L32.74 55.8 L27.57 55.55 L27.47 56.95 L25.25 56.92 L25.19 57.68 L23.42 58.39 L22.93 57.6 L22.37 58.33 L21.64 57.17 L19.74 56.65 L19.93 59.48 L15.44 57.17 L14.54 57.93 L15.44 60.06 L12.64 57.01 L12.51 55.39 L13.03 55.1 L14.16 56.49 L14.04 53.73 L17.71 49.27 L17.01 47.88 L14.87 46.56 L15.19 43.87 L19.0 43.76 L17.19 43.33 L15.77 41.83 L16.2 42.94 L15.51 42.99 L16.42 40.19 L15.51 41.4 L14.87 40.68 L15.13 42.97 L14.54 42.89 L14.28 44.49 L12.95 42.71 L13.3 44.1 L12.42 43.23 L12.23 45.0 L11.33 44.73 L10.93 42.89 L14.87 39.27 L10.65 42.72 L9.93 42.49 L11.13 45.61 L9.5 47.38 L9.84 48.04 L8.62 50.13 L9.18 51.0 L6.75 51.56 L7.71 47.0 L9.84 44.81 L8.59 45.82 L7.9 45.43 L8.74 43.68 L7.56 43.92 L8.74 42.36 L7.46 43.58 L9.13 41.66 L9.32 40.42 L8.42 41.04 L9.48 39.49 L8.54 39.63 L8.73 38.62 L9.9 38.21 L9.06 38.21 L9.82 37.16 L12.15 37.08 L13.51 35.54 L12.23 36.88 L9.84 36.79 L10.09 35.9 L11.84 35.54 L10.22 35.81 L11.13 34.29 L14.16 33.58 L11.88 33.57 L12.99 32.24 L7.77 36.43 L4.63 34.54 L9.0 33.84 L3.18 34.07 L2.5 33.41 L7.0 32.68 L6.11 32.1 L7.9 31.52 L5.45 31.24 L6.1 31.16 L6.29 29.89 L9.19 29.8 L8.2 29.96 L6.81 28.85 L8.04 28.15 L10.35 28.45 L7.71 27.77 L8.68 26.33 L10.29 26.82 L9.39 26.19 L9.97 25.63 L7.25 25.91 L9.9 24.27 L6.52 25.16 L6.22 22.17 L8.09 23.08 L9.29 22.67 L7.9 22.63 L6.53 21.32 L7.77 20.42 L6.55 19.96 L6.48 18.76 L7.54 18.28 L8.42 19.61 L8.35 17.47 L9.53 18.46 L10.21 17.75 L12.03 18.58 L10.67 17.28 L13.45 18.76 L9.91 15.37 L11.29 15.56 L11.84 14.51 L10.43 12.96 L14.74 13.48 L12.49 11.7 L12.77 10.87 L13.97 11.23 L13.19 10.87 L14.16 10.57 L13.12 9.62 L14.23 7.94 L15.66 8.26 L15.83 9.36 L16.22 8.23 L17.32 8.93 L16.37 10.41 L18.02 8.68 L19.05 8.8 L19.52 9.36 L18.87 10.39 L20.29 9.17 L23.26 8.39 L29.51 8.32 L29.41 7.27 L32.76 7.77 L31.72 9.53 L32.44 10.17 L31.72 11.49 L23.51 17.38 L22.74 17.0 L23.44 18.29 L19.84 17.75 L20.63 18.52 L24.33 19.11 L25.61 18.46 L23.64 20.61 L23.13 20.05 L20.75 20.82 L19.5 22.19 L23.44 20.71 L22.54 22.17 L21.06 22.53 L21.7 23.34 L23.2 22.47 L22.74 22.08 L27.38 21.34 L29.09 20.24 L32.61 20.97 L42.37 20.51 L43.96 21.71 L44.62 23.58 L42.54 25.63 L40.6 30.98 L38.34 33.12 L37.51 35.2 L35.5 36.79 L32.37 37.02 L29.9 38.13 L34.02 36.94 L34.8 37.32 L34.8 38.39 L36.92 39.19 L36.25 39.9 L33.28 40.2 L31.4 42.02 L29.72 42.49 L25.06 41.47 L26.65 42.68 L32.2 43.52 L34.61 42.07 L36.38 42.1 L41.05 43.93 L44.03 47.48 L45.83 48.13 L46.89 53.53 L49.17 58.63 L50.14 59.22 L49.89 60.2 L55.88 61.99 L57.76 64.88 L60.47 66.47 L59.11 67.56 L62.41 73.02 L58.73 71.06 L54.34 71.48 L58.55 71.4 L63.24 74.87 L64.34 78.78 L61.27 81.24 L64.8 82.64 L66.54 80.26 L73.17 80.74 L76.65 82.56 L77.62 84.34 L77.85 85.98 L76.07 90.72 L73.72 92.37 L72.07 91.34 L73.14 92.18 L71.24 92.21 L73.24 92.29 L72.47 93.09 L73.19 93.47 L71.2 94.28 L70.4 93.49 L69.4 94.6 L67.75 94.92 L69.93 94.64 L70.13 96.11 L64.8 98.0 L67.72 97.72 L66.4 98.47 L70.37 99.19 L74.81 98.8 L74.14 99.45 L74.21 101.45 L71.22 102.45 L70.4 104.11 L68.35 103.97 L63.73 106.05 L58.64 105.1 L53.74 106.25 L52.43 105.0 L50.99 105.67 L51.11 104.96 L50.21 104.96 L50.34 105.67 L47.37 104.11 L48.78 105.45 L46.5 106.37 L42.92 106.69 L41.99 106.14 L41.57 106.6 L42.8 106.85 L42.68 107.7 L38.6 107.21 L38.09 108.54 L34.21 106.21 L29.48 107.53 L28.57 106.83 L28.35 109.31 L27.71 109.61 L28.35 109.92 L26.72 111.98 L23.11 111.14 L21.64 109.31 L20.8 110.0 L21.71 110.85 L16.99 110.61 L14.09 112.84 L13.62 112.27 L12.93 113.38 L13.59 113.78 L12.32 114.91 L9.65 113.0 L7.48 113.87 L7.67 112.65 L11.15 111.62 L13.64 109.65 L13.97 108.42 L15.58 108.69 L14.87 107.84 L16.07 107.77 L18.1 105.74 L18.57 103.01 L20.54 103.18 L21.57 102.31 L21.38 100.99 L25.7 100.35 L32.74 100.99 L33.18 98.79 L38.74 94.3 L36.09 96.11 Z" fill="none" stroke="#c8c0b4" stroke-width="0.7" stroke-linejoin="round" stroke-linecap="round"/>
</svg>