<svg xmlns="http://www.w3.org/2000/svg" viewBox="0 0 1024 1024" role="img" aria-label="Horizon Care Services solid logo mark">
  <title>Horizon Care Services solid logo mark</title>
  <path fill="#9B0D14" fill-rule="evenodd" clip-rule="evenodd" d="
    M515.40 396.40C576.24 342.59 644.61 277.25 728.29 263.36C851.52 242.90 951.60 377.80 950.91 490.87C950.46 565.17 919.50 634.46 880.18 696.31C790.82 836.84 645.82 933.72 475.58 920.80C290.64 906.76 89.27 699.94 75.56 516.69C64.58 369.86 194.72 216.68 348.24 278.17C411.57 303.54 463.95 353.25 515.40 396.40Z
    M578.00 466.90C610.43 496.81 642.74 527.23 680.35 550.69C697.92 561.66 717.01 571.30 737.20 576.43C874.16 611.22 877.82 389.94 749.56 377.46C727.71 375.33 705.92 381.52 686.21 390.43C645.56 408.79 611.76 438.46 578.00 466.90Z
    M792.40 657.50C770.53 663.58 748.89 669.14 725.96 667.27C606.30 657.54 503.24 529.99 422.10 454.36C388.13 422.71 343.75 376.20 293.10 375.24C272.85 374.86 252.53 382.08 235.89 393.34C167.11 439.88 179.12 531.41 209.11 597.12C231.19 645.48 262.44 689.53 301.78 725.39C416.34 829.83 536.96 841.51 671.24 764.17C719.05 736.64 756.48 698.66 792.40 657.50Z
  "/>
  <circle cx="511.4" cy="201.7" r="99.6" fill="#9B0D14"/>
</svg>
